{
    "asset" : {
        "generator" : "Khronos glTF Blender I/O v1.8.19",
        "version" : "2.0"
    },
    "scene" : 0,
    "scenes" : [
        {
            "name" : "Scene",
            "nodes" : [
                4
            ]
        }
    ],
    "nodes" : [
        {
            "mesh" : 0,
            "name" : "Architexture_0"
        },
        {
            "mesh" : 1,
            "name" : "Architexture_1"
        },
        {
            "children" : [
                0,
                1
            ],
            "name" : "Architexture"
        },
        {
            "children" : [
                2
            ],
            "name" : "Root"
        },
        {
            "children" : [
                3
            ],
            "name" : "Sketchfab_model",
            "rotation" : [
                -0.7071068286895752,
                0,
                0,
                0.7071068286895752
            ]
        }
    ],
    "materials" : [
        {
            "doubleSided" : true,
            "name" : "Architexture.002",
            "pbrMetallicRoughness" : {
                "baseColorFactor" : [
                    0.4507851004600525,
                    0.7605243921279907,
                    0.226965993642807,
                    1
                ],
                "metallicFactor" : 0,
                "roughnessFactor" : 0.6000000238418579
            }
        },
        {
            "doubleSided" : true,
            "name" : "Bookpage.002",
            "pbrMetallicRoughness" : {
                "metallicFactor" : 0,
                "roughnessFactor" : 0.6000000238418579
            }
        }
    ],
    "meshes" : [
        {
            "name" : "Architexture_0.002",
            "primitives" : [
                {
                    "attributes" : {
                        "POSITION" : 0,
                        "NORMAL" : 1
                    },
                    "indices" : 2,
                    "material" : 0
                }
            ]
        },
        {
            "name" : "Architexture_1.002",
            "primitives" : [
                {
                    "attributes" : {
                        "POSITION" : 3,
                        "NORMAL" : 4
                    },
                    "indices" : 5,
                    "material" : 1
                }
            ]
        }
    ],
    "accessors" : [
        {
            "bufferView" : 0,
            "componentType" : 5126,
            "count" : 316,
            "max" : [
                0.7726699709892273,
                0.5,
                0
            ],
            "min" : [
                0.038830000907182693,
                -0.5,
                -0.09035000205039978
            ],
            "type" : "VEC3"
        },
        {
            "bufferView" : 1,
            "componentType" : 5126,
            "count" : 316,
            "type" : "VEC3"
        },
        {
            "bufferView" : 2,
            "componentType" : 5123,
            "count" : 402,
            "type" : "SCALAR"
        },
        {
            "bufferView" : 3,
            "componentType" : 5126,
            "count" : 143,
            "max" : [
                0.7576799988746643,
                0.5,
                -0.011490000411868095
            ],
            "min" : [
                0.04944000020623207,
                -0.5,
                -0.07886999845504761
            ],
            "type" : "VEC3"
        },
        {
            "bufferView" : 4,
            "componentType" : 5126,
            "count" : 143,
            "type" : "VEC3"
        },
        {
            "bufferView" : 5,
            "componentType" : 5123,
            "count" : 210,
            "type" : "SCALAR"
        }
    ],
    "bufferViews" : [
        {
            "buffer" : 0,
            "byteLength" : 3792,
            "byteOffset" : 0
        },
        {
            "buffer" : 0,
            "byteLength" : 3792,
            "byteOffset" : 3792
        },
        {
            "buffer" : 0,
            "byteLength" : 804,
            "byteOffset" : 7584
        },
        {
            "buffer" : 0,
            "byteLength" : 1716,
            "byteOffset" : 8388
        },
        {
            "buffer" : 0,
            "byteLength" : 1716,
            "byteOffset" : 10104
        },
        {
            "buffer" : 0,
            "byteLength" : 420,
            "byteOffset" : 11820
        }
    ],
    "buffers" : [
        {
            "byteLength" : 12240,
            "uri" : "book.bin"
        }
    ]
}
