{
    "asset" : {
        "generator" : "Khronos glTF Blender I/O v1.8.19",
        "version" : "2.0"
    },
    "scene" : 0,
    "scenes" : [
        {
            "name" : "Scene",
            "nodes" : [
                3
            ]
        }
    ],
    "nodes" : [
        {
            "mesh" : 0,
            "name" : "defaultMaterial"
        },
        {
            "children" : [
                0
            ],
            "name" : "RetopoGroup1"
        },
        {
            "children" : [
                1
            ],
            "name" : "Collada visual scene group",
            "rotation" : [
                0.7071068286895752,
                0,
                0,
                0.7071068286895752
            ]
        },
        {
            "children" : [
                2
            ],
            "name" : "Sketchfab_model",
            "rotation" : [
                -0.7071068286895752,
                0,
                0,
                0.7071068286895752
            ],
            "scale" : [
                0.03349895030260086,
                0.03349895030260086,
                0.03349895030260086
            ]
        }
    ],
    "materials" : [
        {
            "doubleSided" : true,
            "name" : "Default",
            "pbrMetallicRoughness" : {
                "baseColorFactor" : [
                    0.8962689638137817,
                    0.5583401918411255,
                    0.22696594893932343,
                    1
                ],
                "metallicFactor" : 0.39906102418899536,
                "roughnessFactor" : 0.4000000059604645
            }
        }
    ],
    "meshes" : [
        {
            "name" : "defaultMaterial",
            "primitives" : [
                {
                    "attributes" : {
                        "POSITION" : 0,
                        "NORMAL" : 1,
                        "TEXCOORD_0" : 2
                    },
                    "indices" : 3,
                    "material" : 0
                }
            ]
        }
    ],
    "accessors" : [
        {
            "bufferView" : 0,
            "componentType" : 5126,
            "count" : 772,
            "max" : [
                4.04279899597168,
                52.27580261230469,
                0.41099900007247925
            ],
            "min" : [
                -58.731998443603516,
                -0.04750100150704384,
                -22.291202545166016
            ],
            "type" : "VEC3"
        },
        {
            "bufferView" : 1,
            "componentType" : 5126,
            "count" : 772,
            "type" : "VEC3"
        },
        {
            "bufferView" : 2,
            "componentType" : 5126,
            "count" : 772,
            "type" : "VEC2"
        },
        {
            "bufferView" : 3,
            "componentType" : 5123,
            "count" : 2316,
            "type" : "SCALAR"
        }
    ],
    "bufferViews" : [
        {
            "buffer" : 0,
            "byteLength" : 9264,
            "byteOffset" : 0
        },
        {
            "buffer" : 0,
            "byteLength" : 9264,
            "byteOffset" : 9264
        },
        {
            "buffer" : 0,
            "byteLength" : 6176,
            "byteOffset" : 18528
        },
        {
            "buffer" : 0,
            "byteLength" : 4632,
            "byteOffset" : 24704
        }
    ],
    "buffers" : [
        {
            "byteLength" : 29336,
            "uri" : "workbench.bin"
        }
    ]
}
